<?xml version="1.0" standalone="no"?>
<!DOCTYPE svg PUBLIC "-//W3C//DTD SVG 20010904//EN"
 "http://www.w3.org/TR/2001/REC-SVG-20010904/DTD/svg10.dtd">
<svg version="1.0" xmlns="http://www.w3.org/2000/svg"
 width="1280.000000pt" height="784.000000pt" viewBox="0 0 1280.000000 784.000000"
 preserveAspectRatio="xMidYMid meet">
<g transform="translate(0.000000,784.000000) scale(0.100000,-0.100000)"
fill="#000000" stroke="none">
<path d="M1110 7823 c-50 -26 -366 -401 -381 -453 -15 -48 -1 -105 34 -145 12
-13 398 -230 857 -481 802 -439 919 -504 875 -489 -11 4 -326 114 -700 245
-374 131 -887 311 -1139 399 -304 107 -474 161 -501 161 -59 0 -106 -29 -134
-83 l-23 -46 20 -305 c17 -270 22 -309 40 -338 12 -18 31 -39 43 -47 13 -7
554 -192 1203 -411 1384 -465 1215 -406 1196 -413 -8 -2 -123 -25 -255 -51
-890 -172 -1404 -394 -1537 -663 -30 -61 -36 -93 -54 -293 l-5 -55 103 -170
c541 -889 1233 -1724 1865 -2248 440 -366 853 -600 1300 -737 121 -37 133 -49
133 -132 0 -108 -63 -270 -187 -482 -72 -121 -78 -135 -81 -196 -13 -234 243
-323 1063 -372 285 -17 1607 -17 2100 0 769 27 1798 73 1991 91 152 13 223 71
245 199 15 81 3 158 -60 412 -54 214 -75 327 -69 380 l3 35 55 2 c620 27 1208
305 1845 874 398 356 822 844 1207 1389 245 347 548 836 548 884 0 10 13 40
29 65 104 163 69 347 -93 498 -171 159 -478 292 -971 418 -299 77 -756 166
-1125 218 -72 10 -94 17 -92 27 2 8 17 66 34 130 56 215 37 372 -56 464 -22
23 -81 62 -131 88 -253 130 -635 215 -1120 249 -188 13 -623 7 -770 -10 -228
-28 -452 -78 -535 -121 -123 -64 -176 -206 -167 -455 l5 -140 -902 0 c-578 0
-1037 -5 -1282 -14 l-380 -14 -1960 1073 c-2111 1156 -2007 1103 -2084 1063z
m8130 -1704 c365 -29 705 -103 898 -196 82 -41 83 -43 58 -164 -14 -62 -59
-206 -69 -215 -3 -3 -107 6 -233 20 -451 50 -1083 98 -1524 116 -351 15 -326
10 -334 67 -8 63 -7 265 2 279 14 22 196 64 367 85 222 27 554 30 835 8z"/>
</g>
</svg>
